<svg width="109" height="8" viewBox="0 0 109 8" fill="none" xmlns="http://www.w3.org/2000/svg">
<path d="M0.5 3.18188C0.223858 3.18188 -2.41411e-08 3.40574 0 3.68188C2.41411e-08 3.95803 0.223858 4.18188 0.5 4.18188L0.5 3.68188L0.5 3.18188ZM108.854 4.03543C109.049 3.84017 109.049 3.52358 108.854 3.32832L105.672 0.146342C105.476 -0.0489205 105.16 -0.0489205 104.964 0.146342C104.769 0.341604 104.769 0.658186 104.964 0.853449L107.793 3.68188L104.964 6.5103C104.769 6.70556 104.769 7.02215 104.964 7.21741C105.16 7.41267 105.476 7.41267 105.672 7.21741L108.854 4.03543ZM1.5 4.18188C1.77614 4.18188 2 3.95803 2 3.68188C2 3.40574 1.77614 3.18188 1.5 3.18188L1.5 3.68188L1.5 4.18188ZM3.5 3.18188C3.22386 3.18188 3 3.40574 3 3.68188C3 3.95803 3.22386 4.18188 3.5 4.18188L3.5 3.68188L3.5 3.18188ZM5.5 4.18188C5.77614 4.18188 6 3.95803 6 3.68188C6 3.40574 5.77614 3.18188 5.5 3.18188L5.5 3.68188L5.5 4.18188ZM7.5 3.18188C7.22386 3.18188 7 3.40574 7 3.68188C7 3.95803 7.22386 4.18188 7.5 4.18188L7.5 3.68188L7.5 3.18188ZM9.5 4.18188C9.77614 4.18188 10 3.95803 10 3.68188C10 3.40574 9.77614 3.18188 9.5 3.18188L9.5 3.68188L9.5 4.18188ZM11.5 3.18188C11.2239 3.18188 11 3.40574 11 3.68188C11 3.95803 11.2239 4.18188 11.5 4.18188L11.5 3.68188L11.5 3.18188ZM13.5 4.18188C13.7761 4.18188 14 3.95803 14 3.68188C14 3.40574 13.7761 3.18188 13.5 3.18188L13.5 3.68188L13.5 4.18188ZM15.5 3.18188C15.2239 3.18188 15 3.40574 15 3.68188C15 3.95803 15.2239 4.18188 15.5 4.18188L15.5 3.68188L15.5 3.18188ZM17.5 4.18188C17.7761 4.18188 18 3.95803 18 3.68188C18 3.40574 17.7761 3.18188 17.5 3.18188L17.5 3.68188L17.5 4.18188ZM19.5 3.18188C19.2239 3.18188 19 3.40574 19 3.68188C19 3.95803 19.2239 4.18188 19.5 4.18188L19.5 3.68188L19.5 3.18188ZM21.5 4.18188C21.7761 4.18188 22 3.95803 22 3.68188C22 3.40574 21.7761 3.18188 21.5 3.18188L21.5 3.68188L21.5 4.18188ZM23.5 3.18188C23.2239 3.18188 23 3.40574 23 3.68188C23 3.95803 23.2239 4.18188 23.5 4.18188L23.5 3.68188L23.5 3.18188ZM25.5 4.18188C25.7761 4.18188 26 3.95802 26 3.68188C26 3.40574 25.7761 3.18188 25.5 3.18188L25.5 3.68188L25.5 4.18188ZM27.5 3.18188C27.2239 3.18188 27 3.40574 27 3.68188C27 3.95802 27.2239 4.18188 27.5 4.18188L27.5 3.68188L27.5 3.18188ZM29.5 4.18188C29.7761 4.18188 30 3.95802 30 3.68188C30 3.40574 29.7761 3.18188 29.5 3.18188L29.5 3.68188L29.5 4.18188ZM31.5 3.18188C31.2239 3.18188 31 3.40574 31 3.68188C31 3.95802 31.2239 4.18188 31.5 4.18188L31.5 3.68188L31.5 3.18188ZM33.5 4.18188C33.7761 4.18188 34 3.95802 34 3.68188C34 3.40574 33.7761 3.18188 33.5 3.18188L33.5 3.68188L33.5 4.18188ZM35.5 3.18188C35.2239 3.18188 35 3.40574 35 3.68188C35 3.95802 35.2239 4.18188 35.5 4.18188L35.5 3.68188L35.5 3.18188ZM37.5 4.18188C37.7761 4.18188 38 3.95802 38 3.68188C38 3.40574 37.7761 3.18188 37.5 3.18188L37.5 3.68188L37.5 4.18188ZM39.5 3.18188C39.2239 3.18188 39 3.40574 39 3.68188C39 3.95802 39.2239 4.18188 39.5 4.18188L39.5 3.68188L39.5 3.18188ZM41.5 4.18188C41.7761 4.18188 42 3.95802 42 3.68188C42 3.40574 41.7761 3.18188 41.5 3.18188L41.5 3.68188L41.5 4.18188ZM43.5 3.18188C43.2239 3.18188 43 3.40574 43 3.68188C43 3.95802 43.2239 4.18188 43.5 4.18188L43.5 3.68188L43.5 3.18188ZM45.5 4.18188C45.7761 4.18188 46 3.95802 46 3.68188C46 3.40574 45.7761 3.18188 45.5 3.18188L45.5 3.68188L45.5 4.18188ZM47.5 3.18188C47.2239 3.18188 47 3.40574 47 3.68188C47 3.95802 47.2239 4.18188 47.5 4.18188L47.5 3.68188L47.5 3.18188ZM49.5 4.18188C49.7761 4.18188 50 3.95802 50 3.68188C50 3.40574 49.7761 3.18188 49.5 3.18188L49.5 3.68188L49.5 4.18188ZM51.5 3.18188C51.2239 3.18188 51 3.40574 51 3.68188C51 3.95802 51.2239 4.18188 51.5 4.18188L51.5 3.68188L51.5 3.18188ZM53.5 4.18188C53.7761 4.18188 54 3.95802 54 3.68188C54 3.40574 53.7761 3.18188 53.5 3.18188L53.5 3.68188L53.5 4.18188ZM55.5 3.18188C55.2239 3.18188 55 3.40574 55 3.68188C55 3.95802 55.2239 4.18188 55.5 4.18188L55.5 3.68188L55.5 3.18188ZM57.5 4.18188C57.7761 4.18188 58 3.95802 58 3.68188C58 3.40574 57.7761 3.18188 57.5 3.18188L57.5 3.68188L57.5 4.18188ZM59.5 3.18188C59.2239 3.18188 59 3.40574 59 3.68188C59 3.95802 59.2239 4.18188 59.5 4.18188L59.5 3.68188L59.5 3.18188ZM61.5 4.18188C61.7761 4.18188 62 3.95802 62 3.68188C62 3.40574 61.7761 3.18188 61.5 3.18188L61.5 3.68188L61.5 4.18188ZM63.5 3.18188C63.2239 3.18188 63 3.40574 63 3.68188C63 3.95802 63.2239 4.18188 63.5 4.18188L63.5 3.68188L63.5 3.18188ZM65.5 4.18188C65.7761 4.18188 66 3.95802 66 3.68188C66 3.40574 65.7761 3.18188 65.5 3.18188L65.5 3.68188L65.5 4.18188ZM67.5 3.18188C67.2239 3.18188 67 3.40574 67 3.68188C67 3.95802 67.2239 4.18188 67.5 4.18188L67.5 3.68188L67.5 3.18188ZM69.5 4.18188C69.7761 4.18188 70 3.95802 70 3.68188C70 3.40574 69.7761 3.18188 69.5 3.18188L69.5 3.68188L69.5 4.18188ZM71.5 3.18188C71.2239 3.18188 71 3.40574 71 3.68188C71 3.95802 71.2239 4.18188 71.5 4.18188L71.5 3.68188L71.5 3.18188ZM73.5 4.18188C73.7761 4.18188 74 3.95802 74 3.68188C74 3.40574 73.7761 3.18188 73.5 3.18188L73.5 3.68188L73.5 4.18188ZM75.5 3.18188C75.2239 3.18188 75 3.40574 75 3.68188C75 3.95802 75.2239 4.18188 75.5 4.18188L75.5 3.68188L75.5 3.18188ZM77.5 4.18188C77.7761 4.18188 78 3.95802 78 3.68188C78 3.40574 77.7761 3.18188 77.5 3.18188L77.5 3.68188L77.5 4.18188ZM79.5 3.18188C79.2239 3.18188 79 3.40574 79 3.68188C79 3.95802 79.2239 4.18188 79.5 4.18188L79.5 3.68188L79.5 3.18188ZM81.5 4.18188C81.7761 4.18188 82 3.95802 82 3.68188C82 3.40574 81.7761 3.18188 81.5 3.18188L81.5 3.68188L81.5 4.18188ZM83.5 3.18188C83.2239 3.18188 83 3.40574 83 3.68188C83 3.95802 83.2239 4.18188 83.5 4.18188L83.5 3.68188L83.5 3.18188ZM85.5 4.18188C85.7761 4.18188 86 3.95802 86 3.68188C86 3.40573 85.7761 3.18188 85.5 3.18188L85.5 3.68188L85.5 4.18188ZM87.5 3.18188C87.2239 3.18188 87 3.40573 87 3.68188C87 3.95802 87.2239 4.18188 87.5 4.18188L87.5 3.68188L87.5 3.18188ZM89.5 4.18188C89.7761 4.18188 90 3.95802 90 3.68188C90 3.40573 89.7761 3.18188 89.5 3.18188L89.5 3.68188L89.5 4.18188ZM91.5 3.18188C91.2239 3.18188 91 3.40573 91 3.68188C91 3.95802 91.2239 4.18188 91.5 4.18188L91.5 3.68188L91.5 3.18188ZM93.5 4.18188C93.7761 4.18188 94 3.95802 94 3.68188C94 3.40573 93.7761 3.18188 93.5 3.18188L93.5 3.68188L93.5 4.18188ZM95.5 3.18188C95.2239 3.18188 95 3.40573 95 3.68188C95 3.95802 95.2239 4.18188 95.5 4.18188L95.5 3.68188L95.5 3.18188ZM97.5 4.18188C97.7761 4.18188 98 3.95802 98 3.68188C98 3.40573 97.7761 3.18188 97.5 3.18188L97.5 3.68188L97.5 4.18188ZM99.5 3.18188C99.2239 3.18188 99 3.40573 99 3.68188C99 3.95802 99.2239 4.18188 99.5 4.18188L99.5 3.68188L99.5 3.18188ZM101.5 4.18188C101.776 4.18188 102 3.95802 102 3.68188C102 3.40573 101.776 3.18188 101.5 3.18188L101.5 3.68188L101.5 4.18188ZM103.5 3.18188C103.224 3.18188 103 3.40573 103 3.68188C103 3.95802 103.224 4.18188 103.5 4.18188L103.5 3.68188L103.5 3.18188ZM105.5 4.18188C105.776 4.18188 106 3.95802 106 3.68188C106 3.40573 105.776 3.18188 105.5 3.18188L105.5 3.68188L105.5 4.18188ZM107.5 3.18188C107.224 3.18188 107 3.40573 107 3.68188C107 3.95802 107.224 4.18188 107.5 4.18188L107.5 3.68188L107.5 3.18188ZM0.5 3.68188L0.5 4.18188L1.5 4.18188L1.5 3.68188L1.5 3.18188L0.5 3.18188L0.5 3.68188ZM3.5 3.68188L3.5 4.18188L5.5 4.18188L5.5 3.68188L5.5 3.18188L3.5 3.18188L3.5 3.68188ZM7.5 3.68188L7.5 4.18188L9.5 4.18188L9.5 3.68188L9.5 3.18188L7.5 3.18188L7.5 3.68188ZM11.5 3.68188L11.5 4.18188L13.5 4.18188L13.5 3.68188L13.5 3.18188L11.5 3.18188L11.5 3.68188ZM15.5 3.68188L15.5 4.18188L17.5 4.18188L17.5 3.68188L17.5 3.18188L15.5 3.18188L15.5 3.68188ZM19.5 3.68188L19.5 4.18188L21.5 4.18188L21.5 3.68188L21.5 3.18188L19.5 3.18188L19.5 3.68188ZM23.5 3.68188L23.5 4.18188L25.5 4.18188L25.5 3.68188L25.5 3.18188L23.5 3.18188L23.5 3.68188ZM27.5 3.68188L27.5 4.18188L29.5 4.18188L29.5 3.68188L29.5 3.18188L27.5 3.18188L27.5 3.68188ZM31.5 3.68188L31.5 4.18188L33.5 4.18188L33.5 3.68188L33.5 3.18188L31.5 3.18188L31.5 3.68188ZM35.5 3.68188L35.5 4.18188L37.5 4.18188L37.5 3.68188L37.5 3.18188L35.5 3.18188L35.5 3.68188ZM39.5 3.68188L39.5 4.18188L41.5 4.18188L41.5 3.68188L41.5 3.18188L39.5 3.18188L39.5 3.68188ZM43.5 3.68188L43.5 4.18188L45.5 4.18188L45.5 3.68188L45.5 3.18188L43.5 3.18188L43.5 3.68188ZM47.5 3.68188L47.5 4.18188L49.5 4.18188L49.5 3.68188L49.5 3.18188L47.5 3.18188L47.5 3.68188ZM51.5 3.68188L51.5 4.18188L53.5 4.18188L53.5 3.68188L53.5 3.18188L51.5 3.18188L51.5 3.68188ZM55.5 3.68188L55.5 4.18188L57.5 4.18188L57.5 3.68188L57.5 3.18188L55.5 3.18188L55.5 3.68188ZM59.5 3.68188L59.5 4.18188L61.5 4.18188L61.5 3.68188L61.5 3.18188L59.5 3.18188L59.5 3.68188ZM63.5 3.68188L63.5 4.18188L65.5 4.18188L65.5 3.68188L65.5 3.18188L63.5 3.18188L63.5 3.68188ZM67.5 3.68188L67.5 4.18188L69.5 4.18188L69.5 3.68188L69.5 3.18188L67.5 3.18188L67.5 3.68188ZM71.5 3.68188L71.5 4.18188L73.5 4.18188L73.5 3.68188L73.5 3.18188L71.5 3.18188L71.5 3.68188ZM75.5 3.68188L75.5 4.18188L77.5 4.18188L77.5 3.68188L77.5 3.18188L75.5 3.18188L75.5 3.68188ZM79.5 3.68188L79.5 4.18188L81.5 4.18188L81.5 3.68188L81.5 3.18188L79.5 3.18188L79.5 3.68188ZM83.5 3.68188L83.5 4.18188L85.5 4.18188L85.5 3.68188L85.5 3.18188L83.5 3.18188L83.5 3.68188ZM87.5 3.68188L87.5 4.18188L89.5 4.18188L89.5 3.68188L89.5 3.18188L87.5 3.18188L87.5 3.68188ZM91.5 3.68188L91.5 4.18188L93.5 4.18188L93.5 3.68188L93.5 3.18188L91.5 3.18188L91.5 3.68188ZM95.5 3.68188L95.5 4.18188L97.5 4.18188L97.5 3.68188L97.5 3.18188L95.5 3.18188L95.5 3.68188ZM99.5 3.68188L99.5 4.18188L101.5 4.18188L101.5 3.68188L101.5 3.18188L99.5 3.18188L99.5 3.68188ZM103.5 3.68188L103.5 4.18188L105.5 4.18188L105.5 3.68188L105.5 3.18188L103.5 3.18188L103.5 3.68188ZM107.5 3.68188L107.5 4.18188L108.5 4.18188L108.5 3.68188L108.5 3.18188L107.5 3.18188L107.5 3.68188Z" fill="#D0D0D0"/>
</svg>
