<svg width="24" height="24" viewBox="0 0 24 24" fill="none" xmlns="http://www.w3.org/2000/svg">
<path d="M13.7143 4V7.55556C13.7143 7.7913 13.8046 8.0174 13.9653 8.18409C14.1261 8.35079 14.3441 8.44444 14.5714 8.44444H18M18 8.44444L13.7143 4H7.71429C7.25963 4 6.82359 4.1873 6.5021 4.5207C6.18061 4.8541 6 5.30628 6 5.77778V18.2222C6 18.6937 6.18061 19.1459 6.5021 19.4793C6.82359 19.8127 7.25963 20 7.71429 20H16.2857C16.7404 20 17.1764 19.8127 17.4979 19.4793C17.8194 19.1459 18 18.6937 18 18.2222V8.44444ZM9.42857 9.33333H10.2857M9.42857 12.8889H14.5714M9.42857 16.4444H14.5714" stroke="#666666" stroke-linecap="round" stroke-linejoin="round"/>
</svg>
