<svg width="28" height="28" viewBox="0 0 28 28" fill="none" xmlns="http://www.w3.org/2000/svg">
<path d="M0 14C0 6.26801 6.26801 0 14 0C21.732 0 28 6.26801 28 14C28 21.732 21.732 28 14 28C6.26801 28 0 21.732 0 14Z" fill="#F7FBFA"/>
<path d="M8.83217 14V10.6014C8.84227 9.93336 8.98408 9.27387 9.24949 8.66072C9.5149 8.04757 9.89869 7.49282 10.3789 7.02825C10.859 6.56368 11.4262 6.19843 12.0477 5.95342C12.6693 5.7084 13.3331 5.58845 14.0012 5.60043C14.6692 5.58845 15.333 5.7084 15.9546 5.95342C16.5761 6.19843 17.1433 6.56368 17.6234 7.02825C18.1036 7.49282 18.4874 8.04757 18.7528 8.66072C19.0182 9.27387 19.16 9.93336 19.1701 10.6014V14M16.5856 20.7843C17.2711 20.7843 17.9285 20.512 18.4132 20.0273C18.8978 19.5426 19.1701 18.8853 19.1701 18.1998V15.2923M16.5856 20.7843C16.5856 21.2127 16.4155 21.6236 16.1125 21.9265C15.8096 22.2294 15.3987 22.3996 14.9703 22.3996H13.032C12.6036 22.3996 12.1927 22.2294 11.8898 21.9265C11.5868 21.6236 11.4167 21.2127 11.4167 20.7843C11.4167 20.3559 11.5868 19.945 11.8898 19.6421C12.1927 19.3392 12.6036 19.169 13.032 19.169H14.9703C15.3987 19.169 15.8096 19.3392 16.1125 19.6421C16.4155 19.945 16.5856 20.3559 16.5856 20.7843ZM6.89381 12.0616H8.18605C8.35741 12.0616 8.52176 12.1297 8.64293 12.2509C8.7641 12.3721 8.83217 12.5364 8.83217 12.7078V16.5845C8.83217 16.7559 8.7641 16.9202 8.64293 17.0414C8.52176 17.1626 8.35741 17.2306 8.18605 17.2306H6.89381C6.55108 17.2306 6.2224 17.0945 5.98005 16.8521C5.73771 16.6098 5.60156 16.2811 5.60156 15.9384V13.3539C5.60156 13.0112 5.73771 12.6825 5.98005 12.4401C6.2224 12.1978 6.55108 12.0616 6.89381 12.0616ZM21.1085 17.2306H19.8163C19.6449 17.2306 19.4805 17.1626 19.3594 17.0414C19.2382 16.9202 19.1701 16.7559 19.1701 16.5845V12.7078C19.1701 12.5364 19.2382 12.3721 19.3594 12.2509C19.4805 12.1297 19.6449 12.0616 19.8163 12.0616H21.1085C21.4512 12.0616 21.7799 12.1978 22.0223 12.4401C22.2646 12.6825 22.4007 13.0112 22.4007 13.3539V15.9384C22.4007 16.2811 22.2646 16.6098 22.0223 16.8521C21.7799 17.0945 21.4512 17.2306 21.1085 17.2306Z" stroke="#096B58" stroke-width="1.2" stroke-linecap="round" stroke-linejoin="round"/>
</svg>
