<svg width="28" height="28" viewBox="0 0 28 28" fill="none" xmlns="http://www.w3.org/2000/svg">
<path d="M0 14C0 6.26801 6.26801 0 14 0C21.732 0 28 6.26801 28 14C28 21.732 21.732 28 14 28C6.26801 28 0 21.732 0 14Z" fill="#F7FBFA"/>
<path d="M14.0029 4.79883C14.0661 4.79883 14.127 4.82382 14.1719 4.86816V4.86914C16.4109 7.11254 18.9037 7.59863 21.5605 7.59863C21.6937 7.59884 21.8018 7.70829 21.8018 7.83887V12.8809C21.8018 15.4788 21.1412 17.6173 19.8711 19.3145C18.5991 21.014 16.679 22.3198 14.0781 23.1865H14.0771C14.0279 23.2029 13.975 23.2029 13.9258 23.1865C11.3254 22.3191 9.40503 21.0129 8.13281 19.3135C6.86256 17.6165 6.20117 15.4787 6.20117 12.8809V7.83887C6.20117 7.77537 6.22667 7.71392 6.27148 7.66895C6.31645 7.62398 6.37781 7.59867 6.44141 7.59863C9.09572 7.59863 11.5886 7.11191 13.833 4.86914C13.878 4.82421 13.9393 4.79884 14.0029 4.79883Z" stroke="#096B58" stroke-width="1.2" stroke-linecap="round"/>
</svg>
