<svg width="28" height="28" viewBox="0 0 28 28" fill="none" xmlns="http://www.w3.org/2000/svg">
<path d="M0 14C0 6.26801 6.26801 0 14 0C21.732 0 28 6.26801 28 14C28 21.732 21.732 28 14 28C6.26801 28 0 21.732 0 14Z" fill="#F7FBFA"/>
<path d="M10.6416 14.8396L13.1616 17.3596L17.3616 11.4796M22.4016 13.9996C22.4016 12.8278 21.6808 11.8114 20.6065 11.262C20.9845 10.123 20.7703 8.88569 19.9429 8.05829C19.1155 7.23005 17.8782 7.01669 16.7383 7.39469C16.1982 6.32117 15.1742 5.59961 14.0016 5.59961C12.8289 5.59961 11.8134 6.32117 11.2724 7.39469C10.125 7.01669 8.88764 7.23005 8.06024 8.05829C7.232 8.88569 7.02704 10.123 7.40504 11.262C6.32984 11.8114 5.60156 12.8278 5.60156 13.9996C5.60156 15.1714 6.33068 16.1878 7.4042 16.7363C7.02788 17.8762 7.232 19.1135 8.0594 19.9409C8.88764 20.7683 10.1258 20.9741 11.264 20.6045C11.8134 21.6789 12.8298 22.3996 14.0016 22.3996C15.1734 22.3996 16.1982 21.6789 16.7383 20.6045C17.8782 20.9741 19.1155 20.7683 19.9429 19.9409C20.7703 19.1135 20.9845 17.8762 20.6065 16.7363C21.6808 16.1886 22.4016 15.1722 22.4016 13.9996Z" stroke="#096B58" stroke-width="1.2" stroke-linecap="round" stroke-linejoin="round"/>
</svg>
