<svg width="28" height="28" viewBox="0 0 28 28" fill="none" xmlns="http://www.w3.org/2000/svg">
<path d="M0 14C0 6.26801 6.26801 0 14 0C21.732 0 28 6.26801 28 14C28 21.732 21.732 28 14 28C6.26801 28 0 21.732 0 14Z" fill="#F7FBFA"/>
<path d="M9.99844 13.236V9.41779C9.99844 7.12688 11.5984 5.59961 13.9984 5.59961C16.3984 5.59961 17.9984 7.12688 17.9984 9.41779V13.236M13.9984 16.2905V19.3451M13.9984 22.3996C15.4836 22.3996 16.908 21.8364 17.9582 20.834C19.0084 19.8315 19.5984 18.4719 19.5984 17.0542C19.5984 15.6365 19.0084 14.2768 17.9582 13.2743C16.908 12.2719 15.4836 11.7087 13.9984 11.7087C12.5132 11.7087 11.0888 12.2719 10.0386 13.2743C8.98844 14.2768 8.39844 15.6365 8.39844 17.0542C8.39844 18.4719 8.98844 19.8315 10.0386 20.834C11.0888 21.8364 12.5132 22.3996 13.9984 22.3996ZM13.9984 17.0542C14.2106 17.0542 14.4141 16.9737 14.5641 16.8305C14.7142 16.6873 14.7984 16.493 14.7984 16.2905C14.7984 16.088 14.7142 15.8938 14.5641 15.7505C14.4141 15.6073 14.2106 15.5269 13.9984 15.5269C13.7863 15.5269 13.5828 15.6073 13.4328 15.7505C13.2827 15.8938 13.1984 16.088 13.1984 16.2905C13.1984 16.493 13.2827 16.6873 13.4328 16.8305C13.5828 16.9737 13.7863 17.0542 13.9984 17.0542Z" stroke="#096B58" stroke-width="1.2"/>
</svg>
