<svg width="24" height="24" viewBox="0 0 24 24" fill="none" xmlns="http://www.w3.org/2000/svg">
<path d="M9.03615 4H14.9639M10.0241 9.33333H13.9759M10.0241 9.33333V4M10.0241 9.33333L6.07229 19.1111C6.02462 19.1974 5.99988 19.2925 6 19.3888C6.00013 19.4852 6.02512 19.5802 6.07301 19.6663C6.1209 19.7525 6.19038 19.8275 6.27598 19.8854C6.36158 19.9433 6.46095 19.9825 6.56627 20H17.4337C17.5391 19.9825 17.6384 19.9433 17.724 19.8854C17.8096 19.8275 17.8791 19.7525 17.927 19.6663C17.9749 19.5802 17.9999 19.4852 18 19.3888C18.0001 19.2925 17.9754 19.1974 17.9277 19.1111L13.9759 9.33333M13.9759 9.33333V4" stroke="#666666" stroke-linecap="round" stroke-linejoin="round"/>
</svg>
