<svg width="24" height="24" viewBox="0 0 24 24" fill="none" xmlns="http://www.w3.org/2000/svg">
<path d="M7.55556 12H16.4444M4 7.55556V5.77778C4 5.30628 4.1873 4.8541 4.5207 4.5207C4.8541 4.1873 5.30628 4 5.77778 4H7.55556M4 16.4444V18.2222C4 18.6937 4.1873 19.1459 4.5207 19.4793C4.8541 19.8127 5.30628 20 5.77778 20H7.55556M16.4444 4H18.2222C18.6937 4 19.1459 4.1873 19.4793 4.5207C19.8127 4.8541 20 5.30628 20 5.77778V7.55556M16.4444 20H18.2222C18.6937 20 19.1459 19.8127 19.4793 19.4793C19.8127 19.1459 20 18.6937 20 18.2222V16.4444" stroke="#666666" stroke-linecap="round" stroke-linejoin="round"/>
</svg>
